<?xml version="1.0" encoding="UTF-8" standalone="no"?><svg xmlns="http://www.w3.org/2000/svg" xmlns:xlink="http://www.w3.org/1999/xlink" contentScriptType="application/ecmascript" contentStyleType="text/css" height="230px" preserveAspectRatio="none" style="width:165px;height:230px;" version="1.1" viewBox="0 0 165 230" width="165px" zoomAndPan="magnify"><defs><filter height="300%" id="f1dmugp6t4u6nm" width="300%" x="-1" y="-1"><feGaussianBlur result="blurOut" stdDeviation="2.0"/><feColorMatrix in="blurOut" result="blurOut2" type="matrix" values="0 0 0 0 0 0 0 0 0 0 0 0 0 0 0 0 0 0 .4 0"/><feOffset dx="4.0" dy="4.0" in="blurOut2" result="blurOut3"/><feBlend in="SourceGraphic" in2="blurOut3" mode="normal"/></filter></defs><g><!--class Stage--><rect fill="#FEFECE" filter="url(#f1dmugp6t4u6nm)" height="48" id="Stage" style="stroke: #A80036; stroke-width: 1.5;" width="64" x="48" y="8"/><ellipse cx="63" cy="24" fill="#ADD1B2" rx="11" ry="11" style="stroke: #A80036; stroke-width: 1.0;"/><path d="M65.7031,29.4375 Q64.7813,30.3594 62.5156,30.3594 Q61.25,30.3594 60.3281,29.4375 Q58.6719,27.7813 58.6719,24.25 Q58.6719,20.1406 60.4531,18.3438 Q61.3906,17.4219 62.5781,17.4219 Q64.8438,17.4219 65.5781,18.1406 Q66.9688,19.5469 66.9063,21.9375 L64.4375,21.9375 Q64.375,19.8125 63.6406,19.0781 Q63.25,18.6719 62.5781,18.6719 Q62.5781,18.6719 62.5156,19.1406 Q61.1875,20.4688 61.1875,24.125 Q61.1875,27.3125 62.3281,28.4375 Q62.8594,28.9688 62.8594,28.9688 Q63.1094,28.9688 63.6406,28.4375 Q64.3125,27.7813 64.375,25.3906 L66.9688,25.3906 Q66.7656,28.375 65.7031,29.4375 Z "/><text fill="#000000" font-family="sans-serif" font-size="12" lengthAdjust="spacingAndGlyphs" textLength="32" x="77" y="28.9102">Stage</text><line style="stroke: #A80036; stroke-width: 1.5;" x1="49" x2="111" y1="40" y2="40"/><line style="stroke: #A80036; stroke-width: 1.5;" x1="49" x2="111" y1="48" y2="48"/><!--class Timeout--><rect fill="#FEFECE" filter="url(#f1dmugp6t4u6nm)" height="103.3438" id="Timeout" style="stroke: #A80036; stroke-width: 1.5;" width="148" x="6" y="116"/><ellipse cx="53.25" cy="132" fill="#ADD1B2" rx="11" ry="11" style="stroke: #A80036; stroke-width: 1.0;"/><path d="M55.9531,137.4375 Q55.0313,138.3594 52.7656,138.3594 Q51.5,138.3594 50.5781,137.4375 Q48.9219,135.7813 48.9219,132.25 Q48.9219,128.1406 50.7031,126.3438 Q51.6406,125.4219 52.8281,125.4219 Q55.0938,125.4219 55.8281,126.1406 Q57.2188,127.5469 57.1563,129.9375 L54.6875,129.9375 Q54.625,127.8125 53.8906,127.0781 Q53.5,126.6719 52.8281,126.6719 Q52.8281,126.6719 52.7656,127.1406 Q51.4375,128.4688 51.4375,132.125 Q51.4375,135.3125 52.5781,136.4375 Q53.1094,136.9688 53.1094,136.9688 Q53.3594,136.9688 53.8906,136.4375 Q54.5625,135.7813 54.625,133.3906 L57.2188,133.3906 Q57.0156,136.375 55.9531,137.4375 Z "/><text fill="#000000" font-family="sans-serif" font-size="12" lengthAdjust="spacingAndGlyphs" textLength="45" x="73.75" y="136.9102">Timeout</text><line style="stroke: #A80036; stroke-width: 1.5;" x1="7" x2="153" y1="148" y2="148"/><ellipse cx="17" cy="160.418" fill="none" rx="3" ry="3" style="stroke: #038048; stroke-width: 1.0;"/><text fill="#000000" font-family="sans-serif" font-size="11" lengthAdjust="spacingAndGlyphs" textLength="61" x="26" y="163.4189">stage: Stage</text><line style="stroke: #A80036; stroke-width: 1.5;" x1="7" x2="153" y1="169.8359" y2="169.8359"/><ellipse cx="17" cy="182.2539" fill="#84BE84" rx="3" ry="3" style="stroke: #038048; stroke-width: 1.0;"/><text fill="#000000" font-family="sans-serif" font-size="11" lengthAdjust="spacingAndGlyphs" textLength="122" x="26" y="185.2549">constructor:function(cfg)</text><ellipse cx="17" cy="196.0898" fill="#84BE84" rx="3" ry="3" style="stroke: #038048; stroke-width: 1.0;"/><text fill="#000000" font-family="sans-serif" font-size="11" lengthAdjust="spacingAndGlyphs" textLength="99" x="26" y="199.0908">timeout:function(ctx)</text><ellipse cx="17" cy="209.9258" fill="#84BE84" rx="3" ry="3" style="stroke: #038048; stroke-width: 1.0;"/><text fill="#000000" font-family="sans-serif" font-size="11" lengthAdjust="spacingAndGlyphs" textLength="105" x="26" y="212.9268">overdue:function(ctx)</text><!--link Stage to Timeout--><path d="M80,76.463 C80,89.043 80,102.885 80,115.863 " fill="none" id="Stage-Timeout" style="stroke: #A80036; stroke-width: 1.0;"/><polygon fill="none" points="73.0001,76.254,80,56.254,87.0001,76.254,73.0001,76.254" style="stroke: #A80036; stroke-width: 1.0;"/><!--
@startuml

	Class Stage
	Class Timeout {
		+constructor:function(cfg)
		+timeout:function(ctx)
		+overdue:function(ctx)
		+stage: Stage
	}
 	Stage <|- - Timeout

@enduml

PlantUML version 1.2019.06(Sat May 25 02:10:25 JST 2019)
(GPL source distribution)
Java Runtime: Java(TM) SE Runtime Environment
JVM: Java HotSpot(TM) 64-Bit Server VM
Java Version: 1.8.0_231-b11
Operating System: Windows 10
OS Version: 10.0
Default Encoding: MS932
Language: ja
Country: JP
--></g></svg>